<svg xmlns="http://www.w3.org/2000/svg" width="213" height="64" fill="none"><path fill="#121723" d="M182.83 56.7h7.56V63h-7.56v-6.3ZM159.521 63h-8.19l11.13-29.4h8.4l11.13 29.4h-8.19l-1.89-5.25h-10.5l-1.89 5.25Zm3.78-10.71h6.72l-3.36-9.87-3.36 9.87Z"/><path fill="#121723" d="M147.349 33.18c.7 0 1.96.14 3.78.42v5.67h-1.68c-.42 0-.798.14-1.134.42a2.647 2.647 0 0 0-.756.84l-3.99 7.56 8.19 14.91h-7.98l-6.51-11.97h-3.78V63h-7.56V33.6h7.56v11.55h3.78l4.2-7.98c.616-1.176 1.372-2.128 2.268-2.856.924-.756 2.128-1.134 3.612-1.134ZM113.326 53.34c-3.36.28-6.538.42-9.534.42-2.968 0-5.096-.644-6.384-1.932-1.288-1.288-1.932-3.304-1.932-6.048V33.6h7.56v12.18c0 .644.182 1.162.546 1.554.392.364.91.546 1.554.546 2.296 0 5.026-.14 8.19-.42V33.6h7.56V63h-7.56v-9.66ZM86.636 41.58c0-1.68-.84-2.52-2.52-2.52h-7.14c-1.68 0-2.52.84-2.52 2.52v13.44c0 1.68.84 2.52 2.52 2.52h7.14c1.68 0 2.52-.84 2.52-2.52V41.58Zm7.56 13.44c0 2.94-.671 5.082-2.016 6.426-1.316 1.316-3.444 1.974-6.384 1.974h-10.5c-2.94 0-5.082-.658-6.425-1.974-1.316-1.344-1.974-3.486-1.974-6.426V41.58c0-2.94.657-5.068 1.974-6.384 1.344-1.344 3.486-2.016 6.425-2.016h10.5c2.94 0 5.069.672 6.384 2.016 1.344 1.316 2.016 3.444 2.016 6.384v13.44ZM58.072 63h-7.56V39.48h-8.82V33.6h25.2v5.88h-8.82V63ZM26.14 63h-7.56V44.94L8.5 63H.52V33.6h7.56v18.06L18.16 33.6h7.98V63ZM181.78 18.03v-5.46h31.08v5.46h-31.08ZM149.01 10.68h9.66c2.94 0 5.068.672 6.384 2.016 1.344 1.316 2.016 3.444 2.016 6.384v2.52c0 2.94-.672 5.082-2.016 6.426C163.738 29.342 161.61 30 158.67 30h-17.22V.6h7.56v10.08ZM177.99 30h-7.56V.6h7.56V30Zm-18.48-10.92c0-1.68-.84-2.52-2.52-2.52h-7.98v7.56h7.98c1.68 0 2.52-.84 2.52-2.52v-2.52ZM138.085 29.58c-6.244.56-11.424.84-15.54.84-2.744 0-4.76-.644-6.048-1.932-1.288-1.288-1.932-3.304-1.932-6.048V9c0-2.94.658-5.068 1.974-6.384C117.883 1.272 120.025.6 122.965.6h15.12v5.88h-13.44c-1.68 0-2.52.84-2.52 2.52v13.44c0 .644.182 1.162.546 1.554.392.364.882.546 1.47.546h1.932c.7-.028 1.428-.056 2.184-.084l2.268-.084a91.066 91.066 0 0 0 2.982-.168 713.44 713.44 0 0 1 4.578-.294v5.67ZM112.04 29.58c-6.244.56-11.424.84-15.54.84-2.744 0-4.76-.644-6.048-1.932-1.288-1.288-1.932-3.304-1.932-6.048V9c0-2.94.658-5.068 1.974-6.384C91.838 1.272 93.98.6 96.92.6h15.12v5.88H98.6c-1.68 0-2.52.84-2.52 2.52v13.44c0 .644.182 1.162.546 1.554.392.364.882.546 1.47.546h1.932c.7-.028 1.428-.056 2.184-.084l2.268-.084a91.066 91.066 0 0 0 2.982-.168 713.44 713.44 0 0 1 4.578-.294v5.67ZM77.58 8.58c0-1.68-.84-2.52-2.52-2.52h-7.14c-1.68 0-2.52.84-2.52 2.52v13.44c0 1.68.84 2.52 2.52 2.52h7.14c1.68 0 2.52-.84 2.52-2.52V8.58Zm7.56 13.44c0 2.94-.672 5.082-2.016 6.426-1.316 1.316-3.444 1.974-6.384 1.974h-10.5c-2.94 0-5.082-.658-6.426-1.974-1.316-1.344-1.974-3.486-1.974-6.426V8.58c0-2.94.658-5.068 1.974-6.384C61.158.852 63.3.18 66.24.18h10.5c2.94 0 5.068.672 6.384 2.016C84.468 3.512 85.14 5.64 85.14 8.58v13.44ZM28.862.6h17.64c2.94 0 5.068.672 6.384 2.016C54.23 3.932 54.902 6.06 54.902 9v4.2c0 2.94-.672 5.082-2.016 6.426-1.316 1.316-3.444 1.974-6.384 1.974h-10.08V30h-7.56V.6ZM47.342 9c0-1.68-.84-2.52-2.52-2.52h-8.4v9.24h8.4c1.68 0 2.52-.84 2.52-2.52V9ZM21.94.18c.7 0 1.96.14 3.78.42v5.67h-1.68c-.42 0-.798.14-1.134.42a2.647 2.647 0 0 0-.756.84l-3.99 7.56L26.35 30h-7.98l-6.51-11.97H8.08V30H.52V.6h7.56v11.55h3.78l4.2-7.98c.616-1.176 1.372-2.128 2.268-2.856C19.252.558 20.456.18 21.94.18Z"/></svg>