<svg xmlns="http://www.w3.org/2000/svg" width="300" height="23" fill="none"><path fill="#fff" d="M294.073 17.36h5.58v4.65h-5.58v-4.65ZM276.869 22.01h-6.045l8.215-21.7h6.2l8.215 21.7h-6.045l-1.395-3.875h-7.75l-1.395 3.875Zm2.79-7.905h4.96l-2.48-7.285-2.48 7.285Z"/><path fill="#fff" d="M267.885 0c.517 0 1.446.103 2.79.31v4.185h-1.24c-.31 0-.589.103-.837.31a1.954 1.954 0 0 0-.558.62l-2.945 5.58 6.045 11.005h-5.89l-4.805-8.835h-2.79v8.835h-5.58V.31h5.58v8.525h2.79l3.1-5.89c.454-.868 1.012-1.57 1.674-2.108.682-.558 1.571-.837 2.666-.837ZM242.772 14.88c-2.48.207-4.825.31-7.037.31-2.19 0-3.761-.475-4.712-1.426-.95-.95-1.426-2.439-1.426-4.464V.31h5.58V9.3c0 .475.135.858.403 1.147.29.269.672.403 1.147.403 1.695 0 3.71-.103 6.045-.31V.31h5.58v21.7h-5.58v-7.13ZM223.073 6.2c0-1.24-.62-1.86-1.86-1.86h-5.27c-1.24 0-1.86.62-1.86 1.86v9.92c0 1.24.62 1.86 1.86 1.86h5.27c1.24 0 1.86-.62 1.86-1.86V6.2Zm5.58 9.92c0 2.17-.496 3.751-1.488 4.743-.972.971-2.542 1.457-4.712 1.457h-7.75c-2.17 0-3.751-.486-4.743-1.457-.972-.992-1.457-2.573-1.457-4.743V6.2c0-2.17.485-3.74 1.457-4.712C210.952.496 212.533 0 214.703 0h7.75c2.17 0 3.74.496 4.712 1.488.992.971 1.488 2.542 1.488 4.712v9.92ZM201.989 22.01h-5.58V4.65h-6.51V.31h18.6v4.34h-6.51v17.36ZM178.421 22.01h-5.58V8.68l-7.44 13.33h-5.89V.31h5.58v13.33l7.44-13.33h5.89v21.7ZM133.787 13.175v-4.03h22.94v4.03h-22.94ZM109.6 7.75h7.13c2.17 0 3.74.496 4.712 1.488.992.971 1.488 2.542 1.488 4.712v1.86c0 2.17-.496 3.751-1.488 4.743-.972.971-2.542 1.457-4.712 1.457h-12.71V.31h5.58v7.44Zm21.39 14.26h-5.58V.31h5.58v21.7Zm-13.64-8.06c0-1.24-.62-1.86-1.86-1.86h-5.89v5.58h5.89c1.24 0 1.86-.62 1.86-1.86v-1.86ZM101.536 21.7c-4.609.413-8.432.62-11.47.62-2.025 0-3.513-.475-4.464-1.426-.95-.95-1.426-2.439-1.426-4.464V6.51c0-2.17.486-3.74 1.457-4.712C86.625.806 88.206.31 90.376.31h11.16v4.34h-9.92c-1.24 0-1.86.62-1.86 1.86v9.92c0 .475.134.858.403 1.147.29.269.65.403 1.085.403h1.426l1.612-.062 1.674-.062a67.31 67.31 0 0 0 2.2-.124c.91-.062 2.037-.134 3.38-.217V21.7ZM82.312 21.7c-4.608.413-8.432.62-11.47.62-2.025 0-3.513-.475-4.464-1.426-.95-.95-1.426-2.439-1.426-4.464V6.51c0-2.17.486-3.74 1.457-4.712C67.401.806 68.982.31 71.152.31h11.16v4.34h-9.92c-1.24 0-1.86.62-1.86 1.86v9.92c0 .475.135.858.403 1.147.29.269.651.403 1.085.403h1.426l1.612-.062 1.674-.062c.579-.02 1.313-.062 2.201-.124.91-.062 2.036-.134 3.38-.217V21.7ZM56.878 6.2c0-1.24-.62-1.86-1.86-1.86h-5.27c-1.24 0-1.86.62-1.86 1.86v9.92c0 1.24.62 1.86 1.86 1.86h5.27c1.24 0 1.86-.62 1.86-1.86V6.2Zm5.58 9.92c0 2.17-.496 3.751-1.488 4.743-.972.971-2.542 1.457-4.712 1.457h-7.75c-2.17 0-3.751-.486-4.743-1.457-.972-.992-1.457-2.573-1.457-4.743V6.2c0-2.17.485-3.74 1.457-4.712C44.757.496 46.338 0 48.508 0h7.75c2.17 0 3.74.496 4.712 1.488.992.971 1.488 2.542 1.488 4.712v9.92ZM20.919.31h13.02c2.17 0 3.74.496 4.712 1.488.992.971 1.488 2.542 1.488 4.712v3.1c0 2.17-.496 3.751-1.488 4.743-.971.971-2.542 1.457-4.712 1.457h-7.44v6.2h-5.58V.31Zm13.64 6.2c0-1.24-.62-1.86-1.86-1.86h-6.2v6.82h6.2c1.24 0 1.86-.62 1.86-1.86v-3.1ZM15.81 0c.517 0 1.447.103 2.79.31v4.185h-1.24c-.31 0-.589.103-.837.31a1.954 1.954 0 0 0-.558.62l-2.945 5.58 6.045 11.005h-5.89L8.37 13.175H5.58v8.835H0V.31h5.58v8.525h2.79l3.1-5.89c.455-.868 1.013-1.57 1.674-2.108C13.826.279 14.714 0 15.81 0Z"/></svg>